<svg xmlns="http://www.w3.org/2000/svg" width="54.917" height="40.574" viewBox="0 0 54.917 40.574">
  <g id="Importation" transform="translate(-7.042 -14.213)">
    <g id="Grupo_130" data-name="Grupo 130" transform="translate(-577.716 -103.943)">
      <path id="Trazado_261" data-name="Trazado 261" d="M630.119,147.574c-1.276,3.5-3.53,5.573-7.295,5.544-3.15-.024-5.452-1.889-6.851-5.534-4.61,0-9.278-.018-13.944.039-.316,0-.745.509-.918.876-1.463,3.109-3.873,4.776-7.014,4.611a6.954,6.954,0,0,1-6.549-5.013c-.107-.292-.215-.675-.445-.818-2.548-1.578-2.53-4.081-2.175-6.529a35.525,35.525,0,0,1,4-11.992c1.87-3.426,4.416-5.6,8.626-5.051a18.079,18.079,0,0,0,2.664.02c.906-1.625,1.443-3.165,2.469-4.236a4.93,4.93,0,0,1,3.215-1.249q11.827-.159,23.659-.042c3.3.027,5.266,2.14,5.269,5.431h-2.04c-.7-2.483-1.547-3.12-4.14-3.12-6.908,0-13.817.091-20.722-.045a4.546,4.546,0,0,0-4.852,4.8c.18,6.032.054,12.073.054,18.11v1.825h4.475c1.795,0,3.6-.1,5.383.026,1.818.125,3-.052,3.639-2.241.794-2.7,3.948-4.345,6.752-4.178a7.257,7.257,0,0,1,6.458,4.954c.224.674.127,1.636,1.322,1.412a1.626,1.626,0,0,0,1.394-1.881c-.012-2.446,0-4.891,0-7.487H634.9c0,3.27.069,6.513-.034,9.751a2.058,2.058,0,0,1-2.329,2.011C631.732,147.578,630.923,147.574,630.119,147.574Zm-29.432-21.5a20.747,20.747,0,0,1-2.472-.014c-3.379-.439-5.563,1.191-7.18,3.96a29.45,29.45,0,0,0-3.826,11.15,11.92,11.92,0,0,0,.115,2.215c1.557-2.623,3.556-4.246,6.436-4.536,2.864-.289,5.047,1.1,6.927,3.478Zm27.161,19.954A4.826,4.826,0,1,0,622.9,150.8,4.877,4.877,0,0,0,627.848,146.023ZM594.321,150.8A4.817,4.817,0,1,0,589.6,146,4.833,4.833,0,0,0,594.321,150.8Z" transform="translate(0 0)" fill="#737584"/>
      <path id="Trazado_262" data-name="Trazado 262" d="M617.5,236.99q-11.335,0-22.67,0a3.1,3.1,0,0,1-1.287-.059c-.423-.214-1.04-.736-.992-1.028a2.24,2.24,0,0,1,1.021-1.2c.268-.178.74-.059,1.12-.059h45.667c.163,0,.362-.059.483.012.582.345,1.558.661,1.629,1.108.165,1.044-.744,1.235-1.648,1.233q-9.052-.016-18.1,0Z" transform="translate(-5.235 -78.297)" fill="#737584"/>
      <path id="Trazado_263" data-name="Trazado 263" d="M668.655,144.7q-6.685,0-13.369-.006c-.916,0-2.1.132-2.112-1.164-.011-1.408,1.224-1.245,2.2-1.245q13.206,0,26.412.005c.937,0,2.21-.269,2.255,1.167.047,1.477-1.237,1.233-2.175,1.236C677.459,144.711,673.057,144.7,668.655,144.7Z" transform="translate(-46.001 -16.214)" fill="#737584"/>
      <path id="Trazado_264" data-name="Trazado 264" d="M718.044,156.987c1.732,0,3.473-.092,5.193.051.577.048,1.1.7,1.653,1.071-.521.407-1.032,1.151-1.565,1.167-3.462.1-6.93.1-10.393,0a1.87,1.87,0,0,1-1.411-1.089c-.181-.966.631-1.213,1.487-1.207,1.678.012,3.357,0,5.036,0Z" transform="translate(-85.216 -26.09)" fill="#737584"/>
      <path id="Trazado_265" data-name="Trazado 265" d="M684.779,159.235c-.776-.153-2.333.516-2.318-1.175.015-1.675,1.555-1.036,2.527-1.148a3.378,3.378,0,0,1,1.6.032,5.29,5.29,0,0,1,1.285,1.137,2.619,2.619,0,0,1-3.1,1.154Z" transform="translate(-65.694 -26.004)" fill="#737584"/>
      <path id="Trazado_266" data-name="Trazado 266" d="M700.56,200.072c-1.039.733-1.714,1.562-2.2,1.463-.628-.129-1.1-1-1.643-1.551.54-.5,1.053-1.349,1.63-1.4C698.9,198.544,699.523,199.332,700.56,200.072Z" transform="translate(-75.28 -54.08)" fill="#737584"/>
      <path id="Trazado_267" data-name="Trazado 267" d="M610.939,196.165c.763,1.031,1.551,1.629,1.523,2.185a2.213,2.213,0,0,1-1.35,1.583,1.291,1.291,0,0,1-1.616-1.485C609.569,197.807,610.231,197.235,610.939,196.165Z" transform="translate(-16.626 -52.452)" fill="#737584"/>
    </g>
  </g>
</svg>
