<svg width="36" height="36" viewBox="0 0 36 36" fill="none" xmlns="http://www.w3.org/2000/svg">
<path fill-rule="evenodd" clip-rule="evenodd" d="M17.995 20.271C17.5467 20.27 17.1087 20.1362 16.7363 19.8865C16.3639 19.6368 16.0739 19.2824 15.9028 18.868C15.7317 18.4536 15.6871 17.9978 15.7749 17.5581C15.8626 17.1184 16.0786 16.7146 16.3956 16.3976C16.7126 16.0806 17.1164 15.8646 17.5561 15.7768C17.9958 15.6891 18.4516 15.7337 18.866 15.9048C19.2804 16.0759 19.6348 16.3659 19.8845 16.7383C20.1342 17.1107 20.268 17.5487 20.269 17.997C20.2697 18.2958 20.2113 18.5918 20.0973 18.868C19.9832 19.1442 19.8157 19.3951 19.6044 19.6064C19.3931 19.8177 19.1422 19.9852 18.866 20.0992C18.5898 20.2133 18.2938 20.2717 17.995 20.271ZM22.444 14.371C22.444 14.5324 22.3961 14.6902 22.3065 14.8243C22.2168 14.9585 22.0894 15.0631 21.9403 15.1249C21.7912 15.1866 21.6271 15.2028 21.4688 15.1713C21.3105 15.1398 21.1651 15.0621 21.051 14.948C20.9369 14.8339 20.8592 14.6885 20.8277 14.5302C20.7962 14.3719 20.8124 14.2078 20.8741 14.0587C20.9359 13.9096 21.0405 13.7822 21.1747 13.6925C21.3089 13.6029 21.4666 13.555 21.628 13.555C21.7354 13.5542 21.8418 13.5746 21.9413 13.6151C22.0407 13.6556 22.1312 13.7153 22.2075 13.7909C22.2838 13.8664 22.3444 13.9563 22.3858 14.0553C22.4273 14.1544 22.4487 14.2606 22.449 14.368L22.444 14.371ZM17.995 11.197C16.152 11.197 15.92 11.205 15.195 11.238C14.6311 11.2493 14.0732 11.3561 13.545 11.554C13.0925 11.7253 12.6829 11.9936 12.345 12.34C12 12.6791 11.732 13.0883 11.559 13.54C11.358 14.07 11.2488 14.6303 11.236 15.197C11.203 15.922 11.195 16.154 11.195 17.997C11.195 19.84 11.203 20.077 11.236 20.804C11.2473 21.3679 11.3541 21.9258 11.552 22.454C11.7233 22.9065 11.9916 23.3161 12.338 23.654C12.6765 23.999 13.0859 24.2661 13.538 24.437C14.0678 24.639 14.6282 24.7492 15.195 24.763C15.922 24.795 16.151 24.804 18.002 24.804C19.853 24.804 20.082 24.796 20.809 24.763C21.3729 24.7517 21.9308 24.6449 22.459 24.447C22.9109 24.2729 23.3213 24.0061 23.6637 23.6637C24.0061 23.3213 24.273 22.9109 24.447 22.459C24.6449 21.9308 24.7517 21.3729 24.763 20.809C24.795 20.082 24.804 19.85 24.804 18.002C24.804 16.154 24.795 15.922 24.764 15.197C24.7524 14.6321 24.6456 14.0733 24.448 13.544C24.2778 13.0916 24.0105 12.682 23.665 12.344C23.326 11.999 22.9167 11.731 22.465 11.558C21.9354 11.3571 21.3753 11.2478 20.809 11.235C20.08 11.205 19.847 11.197 17.995 11.197Z" fill="#FBD872"/>
<path d="M18 35.5C27.665 35.5 35.5 27.665 35.5 18C35.5 8.33502 27.665 0.5 18 0.5C8.33502 0.5 0.5 8.33502 0.5 18C0.5 27.665 8.33502 35.5 18 35.5Z" stroke="#FED880" stroke-opacity="0.3"/>
</svg>
