<svg width="36" height="36" viewBox="0 0 36 36" fill="none" xmlns="http://www.w3.org/2000/svg">
<path d="M18 35.5C27.665 35.5 35.5 27.665 35.5 18C35.5 8.33502 27.665 0.5 18 0.5C8.33502 0.5 0.5 8.33502 0.5 18C0.5 27.665 8.33502 35.5 18 35.5Z" stroke="#FED880" stroke-opacity="0.3"/>
<path d="M26.133 17.5684C26.1353 17.3537 26.1263 17.1391 26.106 16.9254C26.0855 16.4776 25.9342 16.0455 25.6708 15.6827C25.4074 15.32 25.0435 15.0425 24.624 14.8844C23.9257 14.6143 23.1657 14.5449 22.43 14.6843C21.7119 14.8295 21.0516 15.1809 20.53 15.6953L20.222 15.9724V14.5123H17.584V23.6034H20.351V23.3973C20.351 21.828 20.351 20.2587 20.351 18.6893C20.3517 18.5047 20.364 18.3204 20.388 18.1373C20.458 17.5963 20.7 17.2743 21.169 17.2043C21.553 17.1436 21.9433 17.1332 22.33 17.1733C22.5942 17.1836 22.8457 17.2895 23.0377 17.4712C23.2297 17.6529 23.3492 17.8982 23.374 18.1614C23.4145 18.3824 23.4349 18.6067 23.435 18.8314C23.44 20.3704 23.435 21.9093 23.435 23.4493V23.6063H26.135V23.3983C26.1343 21.4556 26.1337 19.5124 26.133 17.5684Z" fill="#FBD872"/>
<path d="M12.467 23.6104H15.224V14.5104H12.467V23.6104Z" fill="#FBD872"/>
<path d="M13.907 10.1313C13.7055 10.1265 13.5051 10.1618 13.3173 10.2352C13.1296 10.3085 12.9584 10.4185 12.8135 10.5587C12.6686 10.6988 12.553 10.8663 12.4735 11.0515C12.3939 11.2366 12.3519 11.4359 12.35 11.6374C12.3484 12.0417 12.5072 12.4301 12.7916 12.7175C13.076 13.0048 13.4627 13.1677 13.867 13.1703C14.2684 13.1725 14.6545 13.0162 14.9414 12.7353C15.2282 12.4544 15.3927 12.0718 15.399 11.6703C15.4046 11.2686 15.2507 10.881 14.9711 10.5925C14.6914 10.304 14.3087 10.1381 13.907 10.1313Z" fill="#FBD872"/>
</svg>
