<svg width="12" height="16" viewBox="0 0 12 16" fill="none" xmlns="http://www.w3.org/2000/svg">
<path d="M11.1493 5.62286C11.0957 7.07066 10.7324 8.49018 10.0842 9.78586C9.08093 11.7858 7.67442 13.5563 5.95322 14.9859C5.90507 15.0433 5.84497 15.0894 5.77707 15.1211C5.70918 15.1527 5.63519 15.1691 5.56028 15.1691C5.48536 15.1691 5.41138 15.1527 5.34348 15.1211C5.27558 15.0894 5.21536 15.0433 5.16721 14.9859C3.20669 13.3753 1.66744 11.312 0.682225 8.97388C0.223697 7.85633 -0.00813467 6.65879 0.000217922 5.45087C0.0287814 4.17235 0.495857 2.94247 1.32309 1.96722C2.15033 0.99198 3.28755 0.330611 4.54429 0.093871C5.97615 -0.172796 7.45545 0.133878 8.6633 0.947783C9.87116 1.76169 10.7107 3.01762 11.0012 4.44485C11.0792 4.83485 11.1013 5.23186 11.1493 5.62286ZM5.55527 3.04086C4.88712 3.0427 4.24673 3.30868 3.7739 3.78076C3.30107 4.25284 3.03413 4.89274 3.03122 5.56088C3.03122 6.2319 3.29742 6.87551 3.77134 7.35055C4.24526 7.8256 4.88828 8.09329 5.5593 8.09488C6.2274 8.09147 6.86711 7.82474 7.33982 7.3526C7.81252 6.88045 8.08 6.24097 8.0842 5.57288C8.08367 4.90203 7.81719 4.25876 7.34311 3.78412C6.86903 3.30948 6.22612 3.04219 5.55527 3.04086Z" fill="#FBD872"/>
</svg>
