<svg xmlns="http://www.w3.org/2000/svg" width="39.201" height="41.808" viewBox="0 0 39.201 41.808">
  <g id="Logistik-Dienste" transform="translate(-10.874 -9.303)">
    <path id="Trazado_268" data-name="Trazado 268" d="M1032.681,98.371c0,3.029-.016,6.058.006,9.086a4.036,4.036,0,0,1-2.513,4.039c-4.39,2.1-8.717,4.331-13.093,6.464a8.519,8.519,0,0,1-8.15-.012q-6.34-3.321-12.825-6.361a4.022,4.022,0,0,1-2.586-3.863q-.056-9.441,0-18.882a3.649,3.649,0,0,1,2.172-3.391c4.836-2.479,9.647-5.009,14.466-7.523a6.03,6.03,0,0,1,5.85.026c4.785,2.476,9.548,4.994,14.331,7.474a3.923,3.923,0,0,1,2.349,3.858c-.057,3.028-.016,6.057-.016,9.086Zm-2.289-5.724-16.076,7.876v15.784c5.054-2.372,9.981-4.627,14.831-7.035a3.023,3.023,0,0,0,1.189-2.158c.174-1.779.055-3.588.056-5.384Zm-26.15,10.529c-1.735-.406-2.531-1.211-2.312-2.924a21.537,21.537,0,0,0,.008-3.687,1.423,1.423,0,0,0-.457-1.052c-1.812-.975-3.669-1.865-5.692-2.873,0,4.708.055,9.15-.029,13.59a3.279,3.279,0,0,0,2.045,3.36c4.242,2.082,8.456,4.224,12.686,6.33a13.717,13.717,0,0,0,1.359.5v-15.9l-7.609-3.637Zm.08-9.045c2.6,1.246,4.927,2.469,7.35,3.46a3.648,3.648,0,0,0,2.593-.135q6.9-3.122,13.681-6.492a3.031,3.031,0,0,0,1.6-2.05,3.249,3.249,0,0,0-1.54-2.118c-1.418-.917-3.033-1.524-4.511-2.356a1.975,1.975,0,0,0-2.2.081c-5.045,2.874-10.115,5.7-15.175,8.548C1005.6,93.358,1005.1,93.671,1004.321,94.131Zm15.518-11.5c-1.7-.852-3.259-1.626-4.811-2.413a4.175,4.175,0,0,0-4.065.06c-2.6,1.353-5.235,2.634-7.854,3.948-1.647.827-3.314,1.617-4.931,2.5-2.162,1.179-2.183,2.93-.069,4.206.767.462,1.636.76,2.386,1.245a2.192,2.192,0,0,0,2.589-.031c5.163-2.97,10.371-5.861,15.562-8.783C1019.008,83.157,1019.354,82.927,1019.84,82.629Z" transform="translate(-982.617 -67.881)" fill="#737584"/>
  </g>
</svg>
