<svg width="15" height="12" viewBox="0 0 15 12" fill="none" xmlns="http://www.w3.org/2000/svg">
<g clip-path="url(#clip0)">
<path d="M15.001 0.762028V10.489C14.994 10.496 14.984 10.502 14.982 10.51C14.9342 10.7377 14.8037 10.9395 14.6156 11.0764C14.4276 11.2133 14.1954 11.2755 13.964 11.251H1.03105C0.892767 11.2646 0.753108 11.2474 0.622238 11.2007C0.491368 11.1541 0.372538 11.079 0.274094 10.9809C0.17565 10.8829 0.100106 10.7642 0.0529021 10.6335C0.005698 10.5029 -0.012035 10.3633 0.00102224 10.225C0.00102224 7.15834 0.00102224 4.09166 0.00102224 1.025C-0.012035 0.886662 0.005698 0.747176 0.0529021 0.616489C0.100106 0.485802 0.17565 0.367169 0.274094 0.269108C0.372538 0.171046 0.491368 0.0959849 0.622238 0.0492896C0.753108 0.00259433 0.892767 -0.0145682 1.03105 -0.000972852H10.566C11.728 -0.000972852 12.89 -0.000972852 14.052 -0.000972852C14.2564 -0.00431774 14.4562 0.059361 14.6209 0.180363C14.7856 0.301364 14.9061 0.473006 14.964 0.66901C14.973 0.70201 14.988 0.734028 15.001 0.762028ZM1.88701 4.435V9.36902H13.116V4.43402L12.951 4.525C11.325 5.454 9.697 6.37901 8.075 7.31501C7.90488 7.42553 7.70633 7.48435 7.50346 7.48435C7.3006 7.48435 7.10217 7.42553 6.93205 7.31501C5.71705 6.61501 4.49505 5.91501 3.27605 5.22101L1.88701 4.435ZM13.126 1.88602H1.87602C1.88081 1.97162 1.88081 2.05741 1.87602 2.14301C1.86982 2.18314 1.87764 2.22417 1.89824 2.25916C1.91883 2.29415 1.95097 2.32097 1.98906 2.33503C3.79373 3.36303 5.59697 4.39333 7.39897 5.426C7.42963 5.44783 7.46643 5.45957 7.50407 5.45957C7.54171 5.45957 7.5784 5.44783 7.60905 5.426C8.34405 5.002 9.08104 4.58302 9.81804 4.16202C10.8807 3.55469 11.9437 2.94835 13.007 2.34302C13.0489 2.32617 13.0838 2.29566 13.1061 2.25644C13.1285 2.21723 13.1369 2.17162 13.1301 2.12702C13.1236 2.04652 13.1219 1.96571 13.125 1.88501L13.126 1.88602Z" fill="#FBD872"/>
</g>
<defs>
<clipPath id="clip0">
<rect width="15" height="11.25" fill="white"/>
</clipPath>
</defs>
</svg>
