<svg width="15" height="15" viewBox="0 0 15 15" fill="none" xmlns="http://www.w3.org/2000/svg">
<path d="M4.01336 5.19417C4.55918 6.26751 5.26751 7.25013 6.11334 8.10719C6.93519 8.8921 7.86903 9.5506 8.88433 10.0612C8.91701 10.0691 8.95114 10.0694 8.98394 10.062C9.01674 10.0545 9.04728 10.0395 9.0733 10.0181C9.5053 9.65014 9.92331 9.26515 10.3593 8.90315C10.4379 8.82111 10.5332 8.7568 10.6386 8.71443C10.7441 8.67206 10.8573 8.6526 10.9709 8.65743C11.0844 8.66225 11.1956 8.69122 11.2971 8.74239C11.3985 8.79355 11.488 8.86576 11.5594 8.95418C12.3324 9.72818 13.0923 10.5152 13.8593 11.3002C13.9738 11.4091 14.0557 11.5476 14.096 11.7003C14.1363 11.8531 14.1333 12.014 14.0873 12.1652C14.0457 12.2748 13.9913 12.3792 13.9253 12.4762C13.6498 12.9547 13.2579 13.3559 12.7858 13.6424C12.3138 13.929 11.777 14.0916 11.2253 14.1152C9.8241 14.2364 8.42277 13.8843 7.24529 13.1152C5.95747 12.3159 4.78665 11.3419 3.76629 10.2211C3.01755 9.48116 2.32093 8.69027 1.68133 7.85414C0.951925 6.9123 0.423112 5.83113 0.127375 4.67717C-0.0849938 3.72532 -0.0310132 2.73336 0.283381 1.81017C0.504316 1.17193 0.946697 0.634068 1.53033 0.294175C1.70063 0.145524 1.90791 0.0456676 2.1303 0.00517373C2.25687 -0.00856148 2.385 0.00512728 2.50579 0.0453349C2.62659 0.0855425 2.73729 0.151326 2.83038 0.238175C3.63038 1.01218 4.43031 1.78318 5.21331 2.57118C5.30089 2.64194 5.37222 2.73071 5.42242 2.8315C5.47261 2.93229 5.5005 3.04273 5.50421 3.15526C5.50791 3.26779 5.48737 3.37979 5.4439 3.48366C5.40044 3.58753 5.33512 3.6808 5.25237 3.75716C4.84737 4.24316 4.43036 4.71117 4.01336 5.19417Z" fill="#FBD872"/>
</svg>
