<svg xmlns="http://www.w3.org/2000/svg" width="48.865" height="43.559" viewBox="0 0 48.865 43.559">
  <g id="Produktdesign" transform="translate(-7.614 -9.523)">
    <g id="Grupo_129" data-name="Grupo 129" transform="translate(-69.56 -79.488)">
      <path id="Trazado_260" data-name="Trazado 260" d="M126.034,168.754c0-1.372-.288-1.653-1.674-1.655q-7.934-.008-15.867.005a1,1,0,0,0-.626.132c-.614.589-1.187,1.22-1.908,1.978h1.535c5.189,0,10.379.009,15.569-.009.59,0,.826.125.82.776-.031,3.328-.013,6.656-.016,9.984,0,.211-.037.423-.056.633h-2.024c0-.316,0-.586,0-.856,0-.3.008-.6,0-.894-.033-.832-.463-1.333-1.11-1.3s-1.024.5-1.041,1.3c-.013.585,0,1.171,0,1.745h-2.095c0-.353,0-.65,0-.946,0-.323.011-.646-.008-.968a1.08,1.08,0,0,0-1.053-1.124,1.04,1.04,0,0,0-1.036,1.118c-.021.637,0,1.276,0,1.923h-2.108a.885.885,0,0,1-.061-.191c-.006-.471,0-.943-.011-1.415-.013-.955-.357-1.431-1.029-1.432-.694,0-1.068.517-1.074,1.489,0,.514,0,1.027,0,1.554h-2.1c0-1.659.01-3.27,0-4.88-.008-.81-.4-1.273-1.039-1.294-.662-.021-1.077.458-1.091,1.309-.016.943-.005,1.887-.006,2.831,0,.684,0,1.367,0,2.054h-2.133c0-.572.006-1.112,0-1.651-.014-.923-.393-1.42-1.065-1.412s-1.021.486-1.034,1.444c-.007.535,0,1.07,0,1.6h-2.136v-.933c0-.3.014-.6,0-.894-.047-.775-.427-1.2-1.05-1.2s-1.018.439-1.041,1.2c-.019.611,0,1.223,0,1.829H96.3c0-.625.016-1.2,0-1.764-.028-.8-.432-1.26-1.07-1.261-.617,0-1.037.484-1.066,1.279-.021.586,0,1.173,0,1.756h-2.1c0-.623.007-1.192,0-1.761-.012-.786-.415-1.253-1.065-1.251-.627,0-1.009.427-1.033,1.195-.019.609,0,1.219,0,1.829H87.885c-.05-.063-.078-.082-.079-.1-.015-.57-.02-1.14-.04-1.709-.028-.781-.393-1.215-1.01-1.217-.649,0-1.062.459-1.086,1.248-.017.587,0,1.176,0,1.792H83.559c0-.642.011-1.21,0-1.777-.019-.8-.418-1.265-1.061-1.268s-1.051.465-1.082,1.255c-.023.586,0,1.174,0,1.789H79.367V169.3h.771c2.284-.005,4.569,0,6.853-.026.241,0,.63-.078.7-.23a17.463,17.463,0,0,0,.592-1.849c-.286-.02-.456-.042-.627-.042-2.98,0-5.959-.007-8.939,0-1.257,0-1.534.291-1.534,1.54q0,6.259,0,12.518c0,1.3.249,1.553,1.573,1.553q11.025,0,22.05.005,11.844,0,23.689-.011c1.333,0,1.551-.226,1.552-1.563Q126.04,174.976,126.034,168.754Z" transform="translate(0 -50.201)" fill="#737584"/>
      <path id="Trazado_259" data-name="Trazado 259" d="M108.534,124.722q6-1.73,11.982-3.521a2.09,2.09,0,0,0,.857-.536c.845-.873,1.623-1.812,2.483-2.67q8.749-8.736,17.527-17.442a5.079,5.079,0,0,0,1.636-3.574,4.676,4.676,0,0,0-1.366-3.264c-1.1-1.115-2.192-2.233-3.328-3.308a4.6,4.6,0,0,0-6.675.072q-10.259,10.174-20.484,20.383a2.338,2.338,0,0,0-.592.921q-1.738,5.766-3.421,11.549C106.845,124.393,107.471,125.029,108.534,124.722Zm11.562-5.954-1.1-1.111,16.035-16.268,1.091,1.094Zm-2.734-2.806-1.226-1.218,15.948-16.2,1.184,1.2Zm16.269-24.534a1.956,1.956,0,0,1,2.717-.045q2.216,2.034,4.28,4.232a2.072,2.072,0,0,1-.081,2.91c-.814.9-1.711,1.715-2.632,2.627L130.969,94.1C131.822,93.239,132.686,92.289,133.632,91.429Zm-4.376,4.319,1.158,1.1-15.939,16.215-1.129-1.146Zm-18,20.88c.206-.887.486-1.757.761-2.711l5.925,5.969c-.928.27-1.84.556-2.765.786a.771.771,0,0,1-.571-.241c-1.05-1.018-2.091-2.047-3.107-3.1A.912.912,0,0,1,111.259,116.628Zm-.87,2.855,2.043,2-2.887.863Z" transform="translate(-19.223 0)" fill="#737584"/>
    </g>
  </g>
</svg>
