<svg width="36" height="36" viewBox="0 0 36 36" fill="none" xmlns="http://www.w3.org/2000/svg">
<path d="M18 35.5C27.665 35.5 35.5 27.665 35.5 18C35.5 8.33502 27.665 0.5 18 0.5C8.33502 0.5 0.5 8.33502 0.5 18C0.5 27.665 8.33502 35.5 18 35.5Z" stroke="#FED880" stroke-opacity="0.3"/>
<path d="M10.005 23.2119C11.6835 23.2478 13.3329 22.7698 14.732 21.8419C12.554 20.9619 11.951 20.4639 11.739 19.3939H12.734C12.1832 18.9847 11.6613 18.538 11.172 18.0569C10.7154 17.5109 10.4822 16.8126 10.519 16.1019L11.736 16.4428L11.821 16.3539C11.2016 15.8376 10.7734 15.1284 10.605 14.3398C10.504 13.9436 10.4862 13.5307 10.5528 13.1273C10.6195 12.7238 10.769 12.3386 10.992 11.9958C12.7301 13.9713 15.1603 15.2042 17.781 15.4399C17.7814 15.0091 17.8068 14.5787 17.857 14.1509C17.9577 13.5696 18.2109 13.0256 18.5907 12.5743C18.9705 12.123 19.4633 11.7805 20.0188 11.582C20.5742 11.3835 21.1724 11.3361 21.7523 11.4444C22.3321 11.5528 22.8727 11.8131 23.319 12.1988C23.4017 12.2867 23.5101 12.3463 23.6287 12.3687C23.7473 12.3912 23.8699 12.3754 23.979 12.3238C24.504 12.1238 25.028 11.9238 25.606 11.7088C25.3885 12.3361 25.0486 12.914 24.606 13.4089L25.906 13.0468L25.993 13.1468C25.6118 13.5875 25.2072 14.0075 24.781 14.4049C24.6524 14.5028 24.549 14.63 24.4794 14.776C24.4099 14.9219 24.3761 15.0823 24.381 15.2439C24.396 16.9749 23.9718 18.6813 23.148 20.2038C22.4606 21.4221 21.4852 22.4534 20.3071 23.2075C19.1291 23.9616 17.7841 24.4157 16.39 24.5299C14.673 24.7648 12.9243 24.5342 11.327 23.8619C10.878 23.6719 10.447 23.4309 10.005 23.2119Z" fill="#FBD872"/>
</svg>
