<svg width="36" height="36" viewBox="0 0 36 36" fill="none" xmlns="http://www.w3.org/2000/svg">
<g clip-path="url(#clip0)">
<path d="M18 1C13.4591 1 9.19006 2.76831 5.97919 5.97919C2.76831 9.19006 1 13.4591 1 18C1 22.5409 2.76831 26.8099 5.97919 30.0208C9.19006 33.2317 13.4591 35 18 35C22.5409 35 26.8099 33.2317 30.0208 30.0208C33.2317 26.8099 35 22.5409 35 18C35 13.4591 33.2317 9.19006 30.0208 5.97919C26.8099 2.76831 22.5409 1 18 1ZM18 0C27.9411 0 36 8.05888 36 18C36 27.9411 27.9411 36 18 36C8.05888 36 0 27.9411 0 18C0 8.05888 8.05888 0 18 0Z" fill="#FED880" fill-opacity="0.3"/>
<path d="M23.535 11.908H13.546C12.6048 11.908 11.7021 12.2819 11.0365 12.9475C10.3709 13.613 9.99701 14.5157 9.99701 15.457V20.451C9.99701 20.9171 10.0888 21.3786 10.2672 21.8091C10.4455 22.2397 10.7069 22.631 11.0365 22.9605C11.366 23.2901 11.7573 23.5515 12.1879 23.7299C12.6185 23.9082 13.0799 24 13.546 24H23.536C24.0021 24 24.4636 23.9082 24.8942 23.7299C25.3247 23.5515 25.716 23.2901 26.0455 22.9605C26.3751 22.631 26.6365 22.2397 26.8149 21.8091C26.9932 21.3786 27.085 20.9171 27.085 20.451V15.457C27.085 14.9909 26.9932 14.5293 26.8148 14.0986C26.6363 13.668 26.3748 13.2767 26.0452 12.9471C25.7155 12.6176 25.3242 12.3562 24.8935 12.1779C24.4628 11.9996 24.0012 11.9079 23.535 11.908ZM21.135 18.197L16.463 20.425C16.4344 20.4384 16.403 20.4445 16.3714 20.4425C16.3399 20.4406 16.3094 20.4307 16.2827 20.4139C16.256 20.3971 16.234 20.3738 16.2187 20.3462C16.2033 20.3186 16.1952 20.2876 16.195 20.256V15.656C16.1952 15.6241 16.2035 15.5927 16.2192 15.5649C16.2349 15.5371 16.2574 15.5137 16.2846 15.497C16.3119 15.4803 16.3429 15.4708 16.3748 15.4694C16.4067 15.468 16.4384 15.4747 16.467 15.489L21.139 17.857C21.1711 17.8726 21.198 17.897 21.2167 17.9273C21.2355 17.9576 21.2452 17.9926 21.2448 18.0283C21.2443 18.0639 21.2338 18.0987 21.2144 18.1286C21.1949 18.1584 21.1674 18.1822 21.135 18.197Z" fill="#FBD872"/>
</g>
<defs>
<clipPath id="clip0">
<rect width="36" height="36" fill="white"/>
</clipPath>
</defs>
</svg>
